<svg width="979" height="655" viewBox="0 0 979 655" fill="none" xmlns="http://www.w3.org/2000/svg">
<g clip-path="url(#clip0)">
<circle cx="626.351" cy="282.472" r="152.64" fill="#FF8062"/>
<mask id="mask0" mask-type="alpha" maskUnits="userSpaceOnUse" x="-66" y="310" width="946" height="346">
<path d="M755.974 476.651C673.973 389.41 559.206 311.686 419.114 310.057C313.191 308.825 218.594 327.813 140.614 353.862C40.8624 387.183 -31.6998 432.058 -66 460.942V655.689H879.665C857.451 607.825 815.283 539.749 755.974 476.651Z" fill="black"/>
</mask>
<g mask="url(#mask0)">
<path d="M-229.836 556.174C-173.087 508.385 -11.6009 416.825 204.472 406.238M-7.01694 680.742C34.6683 645.638 132.865 586.918 267.699 554.021M938.648 875.489C891.914 774.791 756.857 584.63 559.687 539.577M559.687 539.577C533.561 533.607 506.344 530.185 478.097 529.856C401.347 528.964 330.543 538.687 267.699 554.021M559.687 539.577C493.837 478.345 410.991 426.662 314.053 410.502M314.053 410.502C346.007 392.389 436.71 361.075 543.89 380.725C651.07 400.376 730.076 452.643 756.182 476.32M314.053 410.502C301.424 408.397 288.556 406.895 275.454 406.053M140.822 353.531C172.833 357.842 244.576 374.382 275.454 406.053M275.454 406.053C268.789 405.625 262.063 405.367 255.278 405.288C238.035 405.088 221.092 405.423 204.472 406.238M92.9885 371.137C118.51 374.575 169.284 385.784 204.472 406.238M207.03 334.354C239.041 338.665 312.123 365.192 343.002 396.863M419.322 378.374C552.955 412.64 676.809 520.859 767.586 650.699M456.166 374.486C589.799 408.751 734.707 520.859 825.484 650.699M-113.163 529.856C-81.2089 511.743 9.49416 480.429 116.674 500.079C177.653 511.259 229.512 532.997 267.699 554.021M500.905 375.356C634.538 409.621 786.901 520.859 877.677 650.699M175.449 342.779C207.46 347.09 291.324 374.567 322.203 406.238M233.347 328.309C265.358 332.62 343.704 355.726 374.583 387.397M411.427 531.733C345.576 470.502 225.894 429.515 128.955 413.356M357.038 537.205C291.188 475.974 177.646 437.087 80.7071 420.927" stroke="#38A169"/>
</g>
<path d="M-65.793 460.61C-31.4928 431.726 41.0695 386.851 140.821 353.53C218.801 327.481 313.398 308.493 419.321 309.725C559.413 311.354 674.18 389.078 756.181 476.319C815.49 539.417 857.658 607.493 879.872 655.357" stroke="#2F855A" stroke-width="3"/>
<mask id="mask1" mask-type="alpha" maskUnits="userSpaceOnUse" x="0" y="0" width="880" height="655">
<path fill-rule="evenodd" clip-rule="evenodd" d="M880 0H0V416.192C36.9427 395.029 84.4719 372.616 140.614 353.862C218.594 327.813 313.191 308.825 419.114 310.057C559.206 311.686 673.973 389.41 755.974 476.651C814.999 539.447 857.047 607.173 879.344 655H880V0Z" fill="white"/>
</mask>
<g mask="url(#mask1)">
<g style="mix-blend-mode:multiply">
<circle cx="682.493" cy="310.544" r="168.685" stroke="#38A169" stroke-width="3"/>
</g>
</g>
</g>
<defs>
<clipPath id="clip0">
<rect width="979" height="654.421" rx="17.5448" fill="white"/>
</clipPath>
</defs>
</svg>
