<svg width="1317" height="650" viewBox="0 0 1317 650" fill="none" xmlns="http://www.w3.org/2000/svg">
<g id="artextended" clip-path="url(#clip0)">
<path id="sun" d="M878.324 210.272C888.888 185.052 910.183 164.188 933.638 146.876C957.068 129.384 982.453 115.29 1009.87 110.283C1037.31 105.457 1066.57 109.562 1094.44 119.381C1122.49 129.174 1148.94 144.526 1167.54 166.695C1185.96 188.89 1196.71 217.876 1198.26 246.884C1200 275.867 1192.91 304.819 1180.98 330.784C1168.9 356.955 1152.19 380.293 1130.66 398.249C1109.16 416.385 1082.85 429.14 1055.57 432.474C1028.25 435.628 1000.1 428.975 974.418 417.741C948.53 406.354 925.449 390.154 908.291 369.066C890.927 347.824 879.639 321.489 873.989 293.431C868.159 265.399 867.786 235.671 878.324 210.272Z" fill="#FF8062"/>
<g id="hill-details-group">
<mask id="mask0" mask-type="alpha" maskUnits="userSpaceOnUse" x="312" y="310" width="946" height="346">
<path id="hill-contour-mask" d="M1133.97 476.651C1051.97 389.41 937.206 311.686 797.114 310.057C691.191 308.825 596.594 327.813 518.614 353.862C418.862 387.183 346.3 432.058 312 460.942V655.689H1257.66C1235.45 607.825 1193.28 539.749 1133.97 476.651Z" fill="black"/>
</mask>
<g mask="url(#mask0)">
<path id="hill-details" d="M148.164 556.174C204.913 508.385 366.399 416.825 582.472 406.238M370.983 680.742C412.668 645.638 510.865 586.918 645.699 554.021M1316.65 875.489C1269.91 774.791 1134.86 584.63 937.687 539.577M937.687 539.577C911.561 533.607 884.344 530.185 856.097 529.856C779.347 528.964 708.543 538.687 645.699 554.021M937.687 539.577C871.837 478.345 788.991 426.662 692.053 410.502M692.053 410.502C724.007 392.389 814.71 361.075 921.89 380.725C1029.07 400.376 1108.08 452.643 1134.18 476.32M692.053 410.502C679.424 408.397 666.556 406.895 653.454 406.053M518.822 353.531C550.833 357.842 622.576 374.382 653.454 406.053M653.454 406.053C646.789 405.625 640.063 405.367 633.278 405.288C616.035 405.088 599.092 405.423 582.472 406.238M470.988 371.137C496.51 374.575 547.284 385.784 582.472 406.238M585.03 334.354C617.041 338.665 690.123 365.192 721.002 396.863M797.322 378.374C930.955 412.64 1054.81 520.859 1145.59 650.699M834.166 374.486C967.799 408.751 1112.71 520.859 1203.48 650.699M264.837 529.856C296.791 511.743 387.494 480.429 494.674 500.079C555.653 511.259 607.512 532.997 645.699 554.021M878.905 375.356C1012.54 409.621 1164.9 520.859 1255.68 650.699M553.449 342.779C585.46 347.09 669.324 374.567 700.203 406.238M611.347 328.309C643.358 332.62 721.704 355.726 752.583 387.397M789.427 531.733C723.576 470.502 603.894 429.515 506.955 413.356M735.038 537.205C669.188 475.974 555.646 437.087 458.707 420.927" stroke="#38A169"/>
</g>
</g>
<g id="sun-contour-group">
<mask id="mask1" mask-type="alpha" maskUnits="userSpaceOnUse" x="378" y="0" width="880" height="655">
<path id="Subtract" fill-rule="evenodd" clip-rule="evenodd" d="M1258 0H378V416.192C414.943 395.029 462.472 372.616 518.614 353.862C596.594 327.813 691.191 308.825 797.114 310.057C937.206 311.686 1051.97 389.41 1133.97 476.651C1193 539.447 1235.05 607.173 1257.34 655H1258V0Z" fill="white"/>
</mask>
<g mask="url(#mask1)">
<circle id="sun-contour" cx="1060.49" cy="310.544" r="168.685" stroke="#2F855A" stroke-width="3"/>
</g>
</g>
<path id="hill-contour" d="M1257 649C1025 197.5 552 190 86 649" stroke="#2F855A" stroke-width="3"/>
<path id="graminha01" d="M-63 480C-61.5494 473.305 -59.9353 466.399 -58.1554 459.309M488.784 33.3183C384.053 6.05936 295.739 19.431 222.405 56.4826M222.405 56.4826C229.324 44.1631 245.93 17.7995 257 10.9009C268.07 4.00234 238.55 38.4143 222.405 56.4826ZM222.405 56.4826C282.369 48.1878 424.438 41.2564 513 79.8883M222.405 56.4826C192.915 71.3824 165.847 90.1116 141.108 111.568M141.108 111.568C138.802 99.8589 140.762 69.8869 167.054 43.6709M141.108 111.568C135.541 116.396 130.093 121.362 124.761 126.454M124.761 126.454C180.372 117.256 320.654 111.277 436.892 160.946M124.761 126.454C106.29 144.092 89.2208 163.237 73.5101 183.367M73.5101 183.367C76.1225 158.647 85.6887 103.343 103.054 79.8883M73.5101 183.367C68.8232 189.372 64.2572 195.465 59.8108 201.631M59.8108 201.631C109.973 189.794 231.746 178.883 317.541 229.932M59.8108 201.631C47.5401 218.649 36.1811 236.228 25.7088 254.077M25.7088 254.077C24.3915 234.894 26.2541 188.032 44.2432 154.048M25.7088 254.077C22.3504 259.801 19.0832 265.553 15.9064 271.323M15.9064 271.323C67.4421 264.425 182.622 262.01 231.054 307.541M15.9064 271.323C5.19146 290.785 -4.49513 310.454 -13.1846 329.961M-13.1846 329.961C-15.3753 305.241 -17.3351 249.248 -7.64865 223.033M-13.1846 329.961C-16.2692 336.886 -19.2281 343.79 -22.0628 350.657M-22.0628 350.657C-1.69051 333.985 68.1135 314.094 184.351 367.903M-22.0628 350.657C-28.8248 367.038 -34.8798 383.209 -40.2469 398.947M-48.0573 423.092C-47.849 402.971 -46.3946 356.176 -42.2432 329.961M-48.0573 423.092C-45.6377 415.181 -43.0351 407.123 -40.2469 398.947M-48.0573 423.092C-51.8757 435.575 -55.2382 447.689 -58.1554 459.309M-40.2469 398.947C-12.1758 395.497 49.875 392.048 73.5101 405.845M-58.1554 459.309C-50.4092 448.961 -24.7522 431.37 15.9064 443.787" stroke="white" stroke-width="8" stroke-linecap="round"/>
<path id="graminha02" d="M230.495 808.296C212.832 747.034 206.738 677.146 212.965 608.23M556.305 260.984C478.628 252.864 414.749 270.888 363.962 306.031M363.962 306.031C364.496 297.919 368.895 279.298 382.215 269.707M363.962 306.031C358.268 309.97 352.74 314.125 347.374 318.482M347.374 318.482C397.762 303.931 513.419 278.684 572.941 294.109M347.374 318.482C335.826 327.861 325.036 338.177 314.993 349.303M314.993 349.303C311.43 340.888 308.028 319.169 322.932 299.61M314.993 349.303C311.31 353.384 307.728 357.574 304.246 361.866M270.949 411.135C270.545 393.004 272.985 351.916 285.975 332.614M270.949 411.135C280.804 393.605 291.896 377.089 304.246 361.866M270.949 411.135C268.698 415.14 266.511 419.197 264.389 423.304M304.246 361.866C337.827 348.418 428.135 328.903 520.71 358.427M245.217 466.116C242.732 446.988 239.985 403.528 248.877 382.708M245.217 466.116C250.893 451.372 257.28 437.06 264.389 423.304M245.217 466.116C244.07 469.093 242.953 472.089 241.864 475.101M226.566 525.928C222.34 506.172 215.125 461.374 220.078 440.224M226.566 525.928C230.806 508.601 235.901 491.602 241.864 475.101M226.566 525.928C226.156 527.605 225.753 529.284 225.359 530.967M213.433 603.29C209.862 581.414 203.338 533.19 205.807 515.3M213.433 603.29C213.27 604.936 213.114 606.583 212.965 608.23M213.433 603.29C213.475 602.866 213.517 602.441 213.56 602.017M213.433 603.29C219.287 598.44 237.182 589.129 261.931 590.686M264.389 423.304C291.187 409.141 364.689 387.654 444.315 415.014M241.864 475.101C266.731 464.042 332.036 449.101 394.315 477.813M225.359 530.967C233.528 517.271 273.122 496.269 366.139 521.832M225.359 530.967C222.552 542.947 220.15 555.075 218.149 567.296M218.149 567.296C231.163 562.705 263.154 554.429 287.011 558.056M218.149 567.296C216.265 578.803 214.737 590.392 213.56 602.017M212.965 608.23L213.56 602.017" stroke="white" stroke-width="6" stroke-linecap="round"/>
<path id="graminha03" d="M661.903 733.449C639.12 708.859 619.963 679.903 605.739 648.543M719.361 324.283C689.21 330.3 656.426 336.125 623.802 380.985M623.802 380.985C623.147 370.913 622.933 349.158 627.322 342.711M623.802 380.985C619.354 387.101 615.255 393.338 611.496 399.678M611.496 399.678C651.48 365.993 685.474 347.985 750.106 338.757M611.496 399.678C606.037 408.884 601.293 418.309 597.231 427.9M597.231 427.9C590.267 420.397 578.75 402.118 588.402 389.024M597.231 427.9C595.141 432.835 593.232 437.813 591.498 442.829M591.498 442.829C611.184 422.082 652.91 394.53 724.548 377.741M591.498 442.829C586.143 458.323 582.465 474.171 580.329 490.172M580.329 490.172C573.066 475.372 560.03 442.027 565.993 427.045M580.329 490.172C579.887 493.486 579.511 496.806 579.199 500.13M579.199 500.13C603.636 476.033 647.548 441.024 700.773 430.84M579.199 500.13C577.993 513.022 577.762 525.985 578.437 538.913M578.437 538.913C571.199 528.823 555.904 502.468 552.637 477.773M578.437 538.913C578.593 541.898 578.798 544.88 579.049 547.859M583.341 578.681C572.527 568.267 550.573 543.425 549.268 527.369M583.341 578.681C581.364 568.481 579.922 558.189 579.049 547.859M583.341 578.681C584.184 583.028 585.123 587.359 586.157 591.669M579.049 547.859C599.356 528.106 630.488 498.479 679.009 486.995M586.157 591.669C586.818 577.891 619.347 557.08 676.862 544.71M586.157 591.669C588.399 601.015 591.084 610.263 594.184 619.371M602.566 641.315C592.486 630.734 570.509 605.442 563.247 588.922M602.566 641.315C599.507 634.109 596.708 626.786 594.184 619.371M602.566 641.315C603.594 643.738 604.652 646.147 605.739 648.543M594.184 619.371C605.426 609.626 634.457 589.33 660.65 586.107M605.739 648.543C610.983 640.917 625.353 624.557 640.885 620.121" stroke="white" stroke-width="6" stroke-linecap="round"/>
<path id="graminha04" d="M981.298 692C982.57 689.495 983.85 686.889 985.131 684.191M943.007 414C981.999 429.504 1003.55 456.755 1013.61 488.966M1013.61 488.966C1014.74 480.897 1016.33 463.197 1013.61 456.949M1013.61 488.966C993.723 471.266 946.758 434.616 918 429.618M1013.61 488.966C1016.81 499.21 1018.85 509.955 1019.91 520.983M1019.91 520.983C1025.01 514.215 1034.44 498.337 1031.31 488.966M1019.91 520.983C999.226 504.845 949.883 473.348 918 476.472M1019.91 520.983C1021.39 536.251 1021 552.062 1019.26 567.837M1019.26 567.837C1023.79 560.028 1033.5 539.725 1036 520.983M1019.26 567.837C1005.04 551.699 968.638 520.671 936.755 525.669M1019.26 567.837C1017.95 579.652 1015.89 591.447 1013.27 602.978M1013.27 602.978C1020.85 591.785 1036 566.744 1036 556.124M1013.27 602.978C1001.83 591.004 971.764 568.149 943.007 572.522M1013.27 602.978C1010.46 615.417 1007 627.549 1003.18 639.069M1003.18 639.069C1000.31 629.121 983.017 607.975 936.755 602.978M1003.18 639.069C1010.99 628.6 1027.56 605.008 1031.31 594.388M1003.18 639.069C1000.3 647.731 997.221 656.048 994.043 663.888M994.043 663.888C989.795 657.584 976.453 644.386 957.073 642.022M994.043 663.888C992.407 667.924 990.745 671.835 989.074 675.601M989.074 675.601C995.153 668.166 1008.57 650.449 1013.61 639.069M989.074 675.601C987.763 678.556 986.446 681.422 985.131 684.191M985.131 684.191C982.03 677.423 973.171 663.888 962.543 663.888" stroke="white" stroke-width="6" stroke-linecap="round"/>
<path id="graminha05" d="M1232 682C1235.52 669.459 1238.63 654.298 1240.45 638M1146 483C1175.06 485.517 1195.99 496.113 1210.75 511.5M1210.75 511.5C1210 507.167 1207.8 497.5 1205 493.5M1210.75 511.5C1212.45 513.271 1214.06 515.106 1215.6 517M1224.76 530.5C1225.85 526.167 1227.37 515.7 1224.76 508.5M1224.76 530.5C1222.08 525.746 1219.04 521.227 1215.6 517M1224.76 530.5C1225.87 532.461 1226.91 534.462 1227.9 536.5M1235.32 556C1236.35 548.833 1237.13 532.2 1232 523M1235.32 556C1235.85 557.818 1236.35 559.652 1236.81 561.5C1237.02 562.331 1237.22 563.164 1237.41 564M1235.32 556C1233.35 549.238 1230.9 542.701 1227.9 536.5M1240.11 578.5C1241.91 572 1244.8 556.7 1242 547.5M1240.11 578.5C1239.41 573.605 1238.52 568.759 1237.41 564M1240.11 578.5C1240.39 580.487 1240.64 582.482 1240.86 584.483M1242 600.564C1244.17 595.376 1248.6 582.3 1249 571.5M1242 600.564C1241.82 595.192 1241.45 589.817 1240.86 584.483M1242 600.564C1242.08 602.878 1242.12 605.191 1242.13 607.5M1240.86 634C1243.57 626.167 1249 609.1 1249 603.5M1240.86 634C1241.2 630.54 1241.47 627.036 1241.68 623.5M1240.86 634C1240.73 635.34 1240.59 636.674 1240.45 638M1215.6 517C1202.4 509.333 1168.4 494.4 1138 496M1227.9 536.5C1219.6 529.5 1192.5 517 1150.5 523M1237.41 564C1231.44 556.5 1210.3 543.5 1173.5 551.5M1240.86 584.483C1234.91 579.155 1215.5 570.5 1185.5 578.5M1242.13 607.5C1240.42 602.167 1227.9 592.7 1191.5 597.5M1242.13 607.5C1242.15 612.872 1241.99 618.221 1241.68 623.5M1241.68 623.5C1239.52 621 1231.29 616.1 1215.6 616.5M1240.45 638C1239.89 635.833 1235.97 631.2 1224.76 630" stroke="white" stroke-width="6" stroke-linecap="round"/>
</g>
<defs>
<clipPath id="clip0">
<rect width="1317" height="650" fill="white"/>
</clipPath>
</defs>
</svg>
