<svg width="19" height="19" viewBox="0 0 19 19" fill="none" xmlns="http://www.w3.org/2000/svg">
<mask id="mask0" mask-type="alpha" maskUnits="userSpaceOnUse" x="0" y="0" width="19" height="19">
<path d="M18.604 2.96659C18.3864 1.80068 17.7426 0.880909 16.9235 0.565682C15.4424 2.05907e-07 9.5 0 9.5 0C9.5 0 3.56061 2.05907e-07 2.07652 0.565682C1.26042 0.876591 0.616608 1.79636 0.395959 2.96659C0 5.0825 0 9.5 0 9.5C0 9.5 0 13.9175 0.395959 16.0334C0.613586 17.1993 1.2574 18.1191 2.07652 18.4343C3.56061 19 9.5 19 9.5 19C9.5 19 15.4424 19 16.9235 18.4343C17.7396 18.1234 18.3834 17.2036 18.604 16.0334C19 13.9175 19 9.5 19 9.5C19 9.5 19 5.0825 18.604 2.96659Z" fill="#333333"/>
</mask>
<g mask="url(#mask0)">
<path d="M-11.0977 13.3018C-10.1071 12.4677 -8.01163 11.1718 -5.13098 10.2095C-2.87901 9.45729 -0.147203 8.90894 2.91168 8.94451C6.95733 8.99155 10.2716 11.2361 12.6397 13.7555C14.3524 15.5777 15.5702 17.5436 16.2117 18.9258" stroke="#006E6E"/>
<path fill-rule="evenodd" clip-rule="evenodd" d="M11.7899 12.7636C13.3731 12.2292 14.5131 10.7319 14.5131 8.96838C14.5131 6.75666 12.7201 4.96371 10.5084 4.96371C8.2967 4.96371 6.50375 6.75666 6.50375 8.96838C6.50375 9.15768 6.51688 9.34391 6.54229 9.52622C6.23461 9.42186 5.92103 9.32941 5.60169 9.25007C5.59642 9.15685 5.59375 9.06292 5.59375 8.96838C5.59375 6.25408 7.79412 4.05371 10.5084 4.05371C13.2227 4.05371 15.4231 6.25408 15.4231 8.96838C15.4231 10.9717 14.2244 12.6951 12.5051 13.4605C12.275 13.2246 12.0366 12.9918 11.7899 12.7636Z" fill="#006E6E"/>
</g>
<path d="M18.1126 3.05856L18.1125 3.05834C17.9143 1.99638 17.3466 1.26467 16.7446 1.03259C16.4434 0.917655 15.8561 0.815897 15.087 0.735968C14.3361 0.65792 13.4658 0.605418 12.6352 0.570263C11.8057 0.535156 11.0213 0.517575 10.444 0.508781C10.1555 0.504386 9.91904 0.50219 9.75489 0.501094C9.67282 0.500545 9.60886 0.500272 9.56553 0.500136L9.51633 0.500017L9.50394 0.500002L9.5009 0.5L9.50018 0.5L9.50002 0.5L9.5 0L9.49998 0.5L9.49982 0.5L9.49911 0.5L9.49607 0.500002L9.48368 0.500017L9.43451 0.500136C9.3912 0.500272 9.32726 0.500545 9.24524 0.501094C9.08117 0.50219 8.8448 0.504386 8.5564 0.508781C7.97932 0.517575 7.19527 0.535156 6.36594 0.570263C5.53549 0.605418 4.6653 0.65792 3.91422 0.735969C3.14475 0.815929 2.55667 0.917756 2.2546 1.03289L2.25452 1.03292C1.65749 1.26038 1.08893 1.99037 0.887363 3.05891C0.697115 4.07579 0.598716 5.6745 0.549168 7.04483C0.524589 7.72462 0.512289 8.33909 0.506139 8.78362C0.503065 9.00581 0.50153 9.18535 0.500764 9.30915L0.500094 9.45134L0.500012 9.48798L0.500001 9.49715L0.5 9.49937L0.5 9.49989L0.5 9.49999L0 9.5L0.5 9.50001L0.5 9.50012L0.5 9.50063L0.500001 9.50286L0.500012 9.51202L0.500094 9.54866L0.500764 9.69085C0.50153 9.81465 0.503065 9.99419 0.506139 10.2164C0.512289 10.6609 0.524589 11.2754 0.549168 11.9552C0.598722 13.3257 0.697138 14.9246 0.887428 15.9414L0.88747 15.9417C1.0857 17.0037 1.65345 17.7354 2.25547 17.9674C2.5578 18.0824 3.14548 18.1841 3.91422 18.264C4.6653 18.3421 5.53549 18.3946 6.36594 18.4297C7.19527 18.4648 7.97932 18.4824 8.5564 18.4912C8.8448 18.4956 9.08117 18.4978 9.24524 18.4989C9.32726 18.4995 9.3912 18.4997 9.43451 18.4999L9.48368 18.5L9.49607 18.5L9.49911 18.5H9.49982H9.49998L9.5 19L9.50002 18.5H9.50018H9.5009L9.50394 18.5L9.51633 18.5L9.56553 18.4999C9.60886 18.4997 9.67282 18.4995 9.75489 18.4989C9.91904 18.4978 10.1555 18.4956 10.444 18.4912C11.0213 18.4824 11.8057 18.4648 12.6352 18.4297C13.4658 18.3946 14.3361 18.3421 15.087 18.264C15.8565 18.1841 16.444 18.0822 16.7451 17.9672L16.7455 17.9671C17.3426 17.7396 17.9112 17.0095 18.1127 15.9408L18.1126 3.05856ZM18.1126 3.05856C18.3029 4.07543 18.4013 5.67434 18.4508 7.04483C18.4754 7.72462 18.4877 8.33909 18.4939 8.78362C18.4969 9.00581 18.4985 9.18535 18.4992 9.30915L18.4999 9.45134L18.5 9.48798L18.5 9.49715L18.5 9.49937V9.49989V9.49999L19 9.5M18.1126 3.05856L19 9.5M19 9.5L18.5 9.50001V9.50012V9.50063L18.5 9.50286L18.5 9.51202L18.4999 9.54866L18.4992 9.69085C18.4985 9.81465 18.4969 9.99419 18.4939 10.2164C18.4877 10.6609 18.4754 11.2754 18.4508 11.9552C18.4013 13.3254 18.3029 14.9239 18.1127 15.9408L19 9.5Z" stroke="#006E6E"/>
</svg>
