<svg width="102" height="105" viewBox="0 0 102 105" fill="none" xmlns="http://www.w3.org/2000/svg">
<mask id="mask0" mask-type="alpha" maskUnits="userSpaceOnUse" x="15" y="0" width="72" height="72">
<path d="M85.4995 11.2418C84.6748 6.82364 82.2351 3.33818 79.1311 2.14364C73.5186 7.80279e-07 51 0 51 0C51 0 28.4928 7.80279e-07 22.8689 2.14364C19.7763 3.32182 17.3366 6.80727 16.5005 11.2418C15 19.26 15 36 15 36C15 36 15 52.74 16.5005 60.7582C17.3252 65.1764 19.7649 68.6618 22.8689 69.8564C28.4928 72 51 72 51 72C51 72 73.5186 72 79.1311 69.8564C82.2237 68.6782 84.6634 65.1927 85.4995 60.7582C87 52.74 87 36 87 36C87 36 87 19.26 85.4995 11.2418Z" fill="#333333"/>
</mask>
<g mask="url(#mask0)">
<circle cx="54.3603" cy="30.1444" r="16.704" fill="#FF8062"/>
<path d="M-23.6886 50.4059C-19.935 47.245 -11.9942 42.3342 -1.07805 38.6877M79.7994 71.7179C77.3684 66.48 72.7538 59.0301 66.2634 52.125M-41.6406 60.8637C-35.4303 55.634 -17.7583 45.6143 5.88743 44.4556M-17.2566 74.4957C-12.6948 70.6542 -1.94872 64.2282 12.8066 60.6281M86.2314 95.8077C81.1171 84.7879 66.3372 63.9778 44.7601 59.0475M44.7601 59.0475C41.901 58.3941 38.9225 58.0197 35.8314 57.9837C27.4323 57.886 19.684 58.9501 12.8066 60.6281M44.7601 59.0475C37.5539 52.3466 28.4877 46.6907 17.8794 44.9223M17.8794 44.9223C21.3762 42.9401 31.3023 39.5133 43.0314 41.6637C54.7605 43.8141 63.4065 49.5339 66.2634 52.125M17.8794 44.9223C16.4973 44.6919 15.0891 44.5275 13.6554 44.4354M66.2634 52.125C57.2897 42.5779 44.7303 34.0722 29.3994 33.8939C17.8078 33.7591 7.4557 35.8371 -1.07805 38.6877M-1.07805 38.6877C2.42509 39.1595 10.2762 40.9695 13.6554 44.4354M13.6554 44.4354C12.9259 44.3885 12.1899 44.3603 11.4474 44.3517C9.56038 44.3298 7.70623 44.3665 5.88743 44.4556M-6.31262 40.6144C-3.51974 40.9906 2.03672 42.2173 5.88743 44.4556M6.16738 36.5891C9.67052 37.0609 17.6682 39.9638 21.0474 43.4297M29.3994 41.4064C44.0234 45.1562 57.5773 56.999 67.5114 71.208M33.4314 40.9809C48.0554 44.7307 63.9133 56.999 73.8474 71.208M-28.8726 57.9837C-25.3758 56.0015 -15.4497 52.5747 -3.72062 54.7251C2.95256 55.9486 8.62776 58.3274 12.8066 60.6281M38.3274 41.0761C52.9514 44.8259 69.6251 56.999 79.5591 71.208M2.71138 37.511C6.21452 37.9828 15.3921 40.9897 18.7713 44.4556M9.04738 35.9275C12.5505 36.3993 21.1242 38.9279 24.5034 42.3938M28.5354 58.1891C21.3291 51.4883 8.23174 47.003 -2.37662 45.2346M22.5834 58.7879C15.3771 52.0871 2.95174 47.8316 -7.65662 46.0632" stroke="#E6FFFA" stroke-width="0.496552"/>
<path d="M-23.6875 50.4059C-19.9339 47.245 -11.9931 42.3342 -1.07692 38.6877C7.45683 35.8371 17.8089 33.7591 29.4005 33.8939C44.7314 34.0722 57.2908 42.5779 66.2645 52.125C72.7549 59.0301 77.3696 66.48 79.8005 71.7179" stroke="#E6FFFA" stroke-width="2"/>
<path fill-rule="evenodd" clip-rule="evenodd" d="M83.5315 11.6097L83.5314 11.6088C82.7843 7.60625 80.6488 4.87293 78.4131 4.01115C77.2859 3.58122 75.0736 3.19656 72.159 2.89363C69.3164 2.59819 66.0209 2.39934 62.8742 2.26617C59.732 2.13318 56.7608 2.06658 54.5737 2.03326C53.4807 2.01661 52.5849 2.0083 51.9631 2.00414C51.6522 2.00207 51.4099 2.00103 51.2459 2.00051L51.0596 2.00006L51.0127 2.00001L51.0012 2L50.9985 2H50.998L50.9979 0C50.9979 0 73.5165 0 79.129 2.14364C82.233 3.33818 84.6727 6.82364 85.4974 11.2418C86.9979 19.26 86.9979 36 86.9979 36C86.9979 36 86.9979 52.74 85.4974 60.7582C84.6613 65.1927 82.2216 68.6782 79.129 69.8564C78.9358 69.9301 78.7226 70.0014 78.4909 70.0702C78.2027 69.4837 77.8985 68.8752 77.5786 68.2493C77.9019 68.1644 78.1819 68.0771 78.4154 67.988L78.417 67.9874C80.6335 67.143 82.7725 64.4161 83.532 60.3876C84.2512 56.5427 84.6239 50.4926 84.8116 45.3C84.9047 42.7249 84.9513 40.3972 84.9746 38.7132C84.9863 37.8716 84.9921 37.1915 84.995 36.7226L84.9966 36.417L84.9975 36.1841L84.9978 36.0454L84.9979 36.0107L84.9979 36.0023V36.0004V36V35.9996V35.9977L84.9979 35.9893L84.9978 35.9546L84.9975 35.8159C84.9972 35.6934 84.9964 35.5118 84.995 35.2774C84.9921 34.8085 84.9863 34.1284 84.9746 33.2868C84.9513 31.6028 84.9047 29.2751 84.8116 26.7C84.6238 21.5062 84.251 15.4544 83.5315 11.6097ZM17.0064 34.5529C17.0098 34.1887 17.0145 33.7637 17.0211 33.2868C17.0444 31.6028 17.091 29.2751 17.1841 26.7C17.3719 21.5068 17.7447 15.4559 18.464 11.6111C19.2238 7.58331 21.3625 4.85696 23.5788 4.0126L23.5791 4.01248C24.7093 3.58171 26.9249 3.19673 29.8416 2.89364C32.6848 2.59819 35.9799 2.39934 39.1259 2.26617C42.2674 2.13318 45.2375 2.06658 47.4237 2.03326C48.5163 2.01661 49.4117 2.0083 50.0332 2.00414C50.3439 2.00207 50.586 2.00103 50.75 2.00051L50.9362 2.00006L50.9831 2.00001L50.9945 2L50.9972 2H50.9978L50.9979 0C50.9979 0 28.4907 0 22.8668 2.14364C19.7742 3.32182 17.3345 6.80727 16.4984 11.2418C15.2363 17.9857 15.0358 30.8996 15.0039 34.8338C15.6653 34.7337 16.3329 34.6399 17.0064 34.5529ZM65.7628 51.0075C72.2788 48.1075 76.8219 41.5763 76.8219 33.984C76.8219 23.6982 68.4836 15.36 58.1979 15.36C47.9121 15.36 39.5739 23.6982 39.5739 33.984C39.5739 34.3426 39.584 34.6987 39.604 35.0523C40.2941 35.2237 40.977 35.4114 41.6528 35.6143C41.6006 35.0779 41.5739 34.5341 41.5739 33.984C41.5739 24.8028 49.0167 17.36 58.1979 17.36C67.3791 17.36 74.8219 24.8028 74.8219 33.984C74.8219 41.0377 70.4288 47.0653 64.2294 49.48C64.7509 49.9846 65.2621 50.4941 65.7628 51.0075Z" fill="#E6FFFA"/>
</g>
<path d="M1.81198 86.77H7.60798V88.534H3.80998V92.188H6.86998V93.988H3.80998V98.218H8.20198V100H1.81198V86.77ZM15.0743 100.18C14.3543 100.18 13.6403 100.054 12.9323 99.802C12.2243 99.55 11.7143 99.268 11.4023 98.956L12.3563 97.246C12.6083 97.474 12.9983 97.714 13.5263 97.966C14.0663 98.206 14.5823 98.326 15.0743 98.326C15.7103 98.326 16.2263 98.176 16.6223 97.876C17.0303 97.576 17.2343 97.162 17.2343 96.634C17.2343 96.226 17.1263 95.872 16.9103 95.572C16.6943 95.272 16.4303 95.026 16.1183 94.834C15.8063 94.63 15.3623 94.384 14.7863 94.096C14.1023 93.76 13.6343 93.508 13.3823 93.34C12.2183 92.56 11.6363 91.48 11.6363 90.1C11.6363 88.96 12.0143 88.09 12.7703 87.49C13.5263 86.878 14.4803 86.572 15.6323 86.572C16.8683 86.572 17.9183 86.926 18.7823 87.634L17.8283 89.272C17.6003 89.032 17.2763 88.828 16.8563 88.66C16.4483 88.48 16.0103 88.39 15.5423 88.39C14.9423 88.39 14.4683 88.528 14.1203 88.804C13.7843 89.068 13.6163 89.464 13.6163 89.992C13.6163 90.364 13.7243 90.7 13.9403 91C14.1563 91.288 14.4263 91.54 14.7503 91.756C15.0863 91.972 15.5363 92.236 16.1003 92.548C16.6403 92.848 17.0543 93.088 17.3423 93.268C17.6303 93.436 17.9003 93.64 18.1523 93.88C18.5003 94.192 18.7823 94.564 18.9983 94.996C19.2143 95.428 19.3223 95.902 19.3223 96.418C19.3223 97.222 19.1363 97.906 18.7643 98.47C18.4043 99.034 17.9003 99.46 17.2523 99.748C16.6163 100.036 15.8903 100.18 15.0743 100.18ZM29.3014 100.126C27.9334 100.126 26.7454 99.82 25.7374 99.208C24.7414 98.596 23.9794 97.78 23.4514 96.76C22.9234 95.728 22.6594 94.594 22.6594 93.358C22.6594 92.05 22.9414 90.88 23.5054 89.848C24.0814 88.816 24.8854 88.012 25.9174 87.436C26.9494 86.848 28.1194 86.554 29.4274 86.554C30.0154 86.554 30.5614 86.62 31.0654 86.752C31.5814 86.872 32.0074 87.016 32.3434 87.184C32.6794 87.34 32.9014 87.472 33.0094 87.58L32.1274 89.38C31.3954 88.732 30.4414 88.408 29.2654 88.408C28.4374 88.408 27.6874 88.612 27.0154 89.02C26.3434 89.428 25.8154 90.01 25.4314 90.766C25.0474 91.522 24.8554 92.398 24.8554 93.394C24.8554 94.306 25.0234 95.134 25.3594 95.878C25.7074 96.622 26.2114 97.21 26.8714 97.642C27.5314 98.074 28.3174 98.29 29.2294 98.29C30.2854 98.29 31.3054 97.99 32.2894 97.39L32.8834 99.1C32.6194 99.34 32.1334 99.574 31.4254 99.802C30.7294 100.018 30.0214 100.126 29.3014 100.126ZM41.6208 86.752L47.9928 100H45.6708L44.5368 97.408H38.4708L37.3368 100H35.0868L41.4228 86.752H41.6208ZM40.7208 92.386L39.2808 95.59H43.7448L42.3228 92.404L41.5488 90.586H41.5128L40.7208 92.386ZM50.9011 86.77H53.8171C55.4611 86.77 56.6611 87.124 57.4171 87.832C58.1851 88.528 58.5691 89.488 58.5691 90.712C58.5691 92.128 58.1551 93.214 57.3271 93.97C56.4991 94.726 55.2691 95.104 53.6371 95.104H52.9351V100H50.9011V86.77ZM53.6911 93.322C54.7471 93.322 55.4851 93.088 55.9051 92.62C56.3251 92.152 56.5351 91.588 56.5351 90.928C56.5351 90.22 56.3311 89.644 55.9231 89.2C55.5151 88.756 54.8311 88.534 53.8711 88.534H52.9351V93.322H53.6911ZM62.48 86.77H64.496V100H62.48V86.77ZM72.379 100.18C71.659 100.18 70.945 100.054 70.237 99.802C69.529 99.55 69.019 99.268 68.707 98.956L69.661 97.246C69.913 97.474 70.303 97.714 70.831 97.966C71.371 98.206 71.887 98.326 72.379 98.326C73.015 98.326 73.531 98.176 73.927 97.876C74.335 97.576 74.539 97.162 74.539 96.634C74.539 96.226 74.431 95.872 74.215 95.572C73.999 95.272 73.735 95.026 73.423 94.834C73.111 94.63 72.667 94.384 72.091 94.096C71.407 93.76 70.939 93.508 70.687 93.34C69.523 92.56 68.941 91.48 68.941 90.1C68.941 88.96 69.319 88.09 70.075 87.49C70.831 86.878 71.785 86.572 72.937 86.572C74.173 86.572 75.223 86.926 76.087 87.634L75.133 89.272C74.905 89.032 74.581 88.828 74.161 88.66C73.753 88.48 73.315 88.39 72.847 88.39C72.247 88.39 71.773 88.528 71.425 88.804C71.089 89.068 70.921 89.464 70.921 89.992C70.921 90.364 71.029 90.7 71.245 91C71.461 91.288 71.731 91.54 72.055 91.756C72.391 91.972 72.841 92.236 73.405 92.548C73.945 92.848 74.359 93.088 74.647 93.268C74.935 93.436 75.205 93.64 75.457 93.88C75.805 94.192 76.087 94.564 76.303 94.996C76.519 95.428 76.627 95.902 76.627 96.418C76.627 97.222 76.441 97.906 76.069 98.47C75.709 99.034 75.205 99.46 74.557 99.748C73.921 100.036 73.195 100.18 72.379 100.18ZM82.5691 88.534H79.1851V86.77H87.9871V88.534H84.5671V100H82.5691V88.534ZM95.4978 86.752L101.87 100H99.5478L98.4138 97.408H92.3478L91.2138 100H88.9638L95.2998 86.752H95.4978ZM94.5978 92.386L93.1578 95.59H97.6218L96.1998 92.404L95.4258 90.586H95.3898L94.5978 92.386Z" fill="#F0FFF4"/>
</svg>
